# Blender v2.79 (sub 0) OBJ File: 'indigo_happy.blend'
# www.blender.org
o Plane_Plane.002
v 28.015106 -4.079097 19.395033
v -28.015106 -4.079079 -36.635178
v -28.015106 -4.079097 19.395033
v 28.015106 -4.079079 -36.635178
vt 1.000000 0.000000
vt 0.000000 1.000000
vt 0.000000 0.000000
vt 1.000000 1.000000
vn 0.0000 1.0000 0.0000
s 1
f 1/1/1 2/2/1 3/3/1
f 1/1/1 4/4/1 2/2/1
o Plane.001
v 30.976175 -15.567173 -14.620078
v -30.976175 15.409001 -14.620067
v -30.976175 -15.567173 -14.620078
v 30.976175 15.409001 -14.620067
vt 1.000000 0.000000
vt 0.000000 1.000000
vt 0.000000 0.000000
vt 1.000000 1.000000
vn 0.0000 -0.0000 1.0000
s 1
f 5/5/2 6/6/2 7/7/2
f 5/5/2 8/8/2 6/6/2
