# Blender v2.80 (sub 35) OBJ File: ''
# www.blender.org
o Plane.020_Plane.028
v -7.263579 2.054099 -10.203873
v -5.228601 -0.463939 -9.903292
v -5.228601 2.054100 -9.903291
v -5.227509 -0.463939 -9.910685
v -7.262487 2.054099 -10.211266
v -5.227509 2.054100 -9.910685
v -7.263579 -0.463940 -10.203873
v -7.262487 -0.463940 -10.211266
vn -0.1461 -0.0000 0.9893
vn 0.1461 0.0000 -0.9893
s off
f 1//1 2//1 3//1
f 4//2 5//2 6//2
f 1//1 7//1 2//1
f 4//2 8//2 5//2
o Plane.065_Plane.067
v 4.288820 2.054099 -8.279245
v 2.878494 -0.463941 1.268835
v 2.878494 2.054097 1.268835
v 2.885888 -0.463941 1.269927
v 4.296214 2.054099 -8.278152
v 2.885888 2.054097 1.269927
v 4.288820 -0.463940 -8.279245
v 4.296214 -0.463940 -8.278152
vn -0.9893 -0.0000 -0.1461
vn 0.9893 0.0000 0.1461
s off
f 9//3 10//3 11//3
f 12//4 13//4 14//4
f 9//3 15//3 10//3
f 12//4 16//4 13//4
o Plane.064_Plane.066
v -3.630059 2.054099 -9.667173
v 4.108125 -0.463939 -8.524183
v 4.108124 2.054100 -8.524183
v 4.109217 -0.463939 -8.531576
v -3.628967 2.054099 -9.674566
v 4.109217 2.054100 -8.531577
v -3.630059 -0.463940 -9.667173
v -3.628967 -0.463940 -9.674566
vn -0.1461 -0.0000 0.9893
vn 0.1461 -0.0000 -0.9893
s off
f 17//5 18//5 19//5
f 20//6 21//6 22//6
f 17//5 23//5 18//5
f 20//6 24//6 21//6
o Plane
v 6.765721 6.368969 9.540304
v -13.732115 6.368976 9.540304
v 6.765721 6.368969 -10.957531
v -13.732115 6.368976 -10.957531
vt 1.000000 0.000000
vt 0.000000 1.000000
vt 0.000000 0.000000
vt 1.000000 1.000000
vn -0.0000 -1.0000 0.0000
s off
f 26/1/7 27/2/7 25/3/7
f 26/1/7 28/4/7 27/2/7
