# Blender v2.80 (sub 35) OBJ File: ''
# www.blender.org
o Plane_Plane.002
v 28.015106 -2.416897 25.015106
v -28.015106 -2.416888 -31.015106
v -28.015106 -2.416897 25.015106
v 28.015106 -2.416888 -31.015106
vt 1.000000 0.000000
vt 0.000000 1.000000
vt 0.000000 0.000000
vt 1.000000 1.000000
vn 0.0000 1.0000 0.0000
s off
f 1/1/1 2/2/1 3/3/1
f 1/1/1 4/4/1 2/2/1
o Plane.001
v 30.976175 -13.904979 -9.000003
v -30.976175 17.071196 -8.999996
v -30.976175 -13.904979 -9.000003
v 30.976175 17.071196 -8.999996
vt 1.000000 0.000000
vt 0.000000 1.000000
vt 0.000000 0.000000
vt 1.000000 1.000000
vn 0.0000 -0.0000 1.0000
s off
f 5/5/2 6/6/2 7/7/2
f 5/5/2 8/8/2 6/6/2
